<?xml version="1.0" encoding="UTF-8"?>
<svg xmlns="http://www.w3.org/2000/svg" xmlns:xlink="http://www.w3.org/1999/xlink" width="375pt" height="374.999991pt" viewBox="0 0 375 374.999991" version="1.2">
<defs>
<clipPath id="clip1">
  <path d="M 20 25.121094 L 355 25.121094 L 355 349 L 20 349 Z M 20 25.121094 "/>
</clipPath>
</defs>
<g id="surface1">
<g clip-path="url(#clip1)" clip-rule="nonzero">
<path style=" stroke:none;fill-rule:nonzero;fill:rgb(19.60907%,42.349243%,89.7995%);fill-opacity:1;" d="M 186.710938 25.109375 C 183.695312 25.289062 180.828125 26.046875 178.117188 27.382812 L 61.734375 82.8125 C 55.65625 85.699219 51.238281 91.195312 49.722656 97.742188 L 21.238281 222.144531 C 19.878906 227.984375 20.976562 234.105469 24.371094 239.109375 C 24.765625 239.714844 25.183594 240.296875 25.621094 240.863281 L 106.03125 340.6875 C 110.28125 345.902344 116.664062 348.894531 123.386719 348.863281 L 252.355469 348.863281 C 259.101562 348.871094 265.492188 345.734375 269.734375 340.59375 L 350.101562 240.746094 C 354.320312 235.535156 355.898438 228.652344 354.277344 222.125 L 325.601562 97.617188 C 324.085938 91.070312 319.648438 85.574219 313.59375 82.6875 L 197.394531 27.394531 C 193.992188 25.71875 190.398438 24.957031 186.609375 25.109375 Z M 186.710938 25.109375 "/>
</g>
<path style="fill-rule:nonzero;fill:rgb(100%,100%,100%);fill-opacity:1;stroke-width:0.055;stroke-linecap:butt;stroke-linejoin:miter;stroke:rgb(100%,100%,100%);stroke-opacity:1;stroke-miterlimit:4;" d="M 16.001932 4.541819 C 15.618145 4.569167 15.327125 4.898098 15.34695 5.282101 L 15.34695 5.470168 C 15.364905 5.682962 15.397074 5.893882 15.438969 6.102929 C 15.500315 6.504165 15.522385 6.907648 15.505178 7.313005 C 15.467024 7.446001 15.391089 7.565884 15.2871 7.658045 L 15.272138 7.940146 C 14.867029 7.973863 14.464913 8.036053 14.069155 8.125966 C 12.403085 8.502101 10.88589 9.366012 9.715077 10.610929 L 9.47493 10.440844 C 9.342886 10.48093 9.201117 10.465945 9.079921 10.401133 C 8.754487 10.160242 8.455612 9.890129 8.182921 9.591169 C 8.046388 9.427453 7.900504 9.272728 7.746017 9.12587 L 7.597888 9.00786 C 7.465844 8.901838 7.303876 8.841147 7.135174 8.832905 C 7.032681 8.82766 6.934677 8.845642 6.841161 8.887227 C 6.747646 8.928812 6.668345 8.989503 6.604006 9.068926 C 6.378073 9.385868 6.452137 9.824942 6.767845 10.051972 L 6.905874 10.162115 C 7.083927 10.280125 7.267966 10.388021 7.457989 10.485051 C 7.811851 10.68211 8.145888 10.912886 8.455986 11.184872 C 8.536783 11.30026 8.581296 11.428386 8.589152 11.568875 L 8.806855 11.76893 C 7.630057 13.534967 7.147144 15.674141 7.449012 17.775102 L 7.168839 17.854899 C 7.095897 17.971037 6.999015 18.069941 6.883056 18.142995 C 6.491414 18.247518 6.093412 18.31308 5.689051 18.340053 C 5.474714 18.344174 5.261499 18.361033 5.049032 18.38988 L 4.872101 18.429966 L 4.851901 18.429966 C 4.790555 18.438583 4.731453 18.455067 4.674596 18.480167 C 4.618113 18.505268 4.565744 18.537112 4.517864 18.576824 C 4.469984 18.616161 4.428463 18.661492 4.393302 18.712442 C 4.357766 18.763393 4.330085 18.81809 4.31026 18.876907 C 4.290061 18.935725 4.278465 18.996042 4.275098 19.057857 C 4.271732 19.119672 4.276968 19.180738 4.290435 19.241429 C 4.304275 19.301745 4.325971 19.359439 4.355521 19.413761 C 4.385072 19.468084 4.42173 19.517536 4.465121 19.562117 C 4.508887 19.60595 4.557515 19.643414 4.611754 19.673759 C 4.665993 19.704479 4.723224 19.726958 4.783448 19.741568 C 4.844046 19.756179 4.905392 19.762173 4.967486 19.759551 C 5.029206 19.757303 5.089804 19.746439 5.148906 19.726958 L 5.161998 19.726958 L 5.341922 19.707102 C 5.545038 19.64716 5.745161 19.572982 5.940047 19.489063 C 6.314857 19.338834 6.703881 19.223821 7.101882 19.148894 C 7.239911 19.157136 7.371955 19.203965 7.484173 19.284137 L 7.784171 19.233936 C 8.433916 21.250979 9.799989 22.96007 11.623914 24.03715 L 11.50197 24.291902 C 11.558079 24.409164 11.579027 24.539163 11.56182 24.668037 C 11.396859 25.050167 11.194865 25.415812 10.958832 25.760103 C 10.829407 25.930937 10.710081 26.108515 10.600855 26.292836 L 10.515943 26.473036 C 10.48527 26.526609 10.462078 26.583179 10.447116 26.643121 C 10.431779 26.702688 10.425046 26.763754 10.426543 26.825194 C 10.428413 26.887009 10.438139 26.947325 10.456468 27.006518 C 10.474797 27.065336 10.500981 27.120782 10.534646 27.172482 C 10.568312 27.224182 10.608337 27.270637 10.65472 27.311097 C 10.701104 27.351933 10.751976 27.38565 10.807711 27.412249 C 10.863447 27.438848 10.9218 27.457206 10.982772 27.467696 C 11.04337 27.478185 11.104716 27.480433 11.166063 27.474064 C 11.227409 27.466946 11.286884 27.451961 11.34449 27.428359 C 11.401721 27.405131 11.454838 27.374411 11.503466 27.336198 C 11.552468 27.297985 11.595111 27.254153 11.631769 27.203951 C 11.668427 27.154125 11.69723 27.100177 11.718926 27.042109 L 11.801967 26.872024 C 11.877902 26.671968 11.941866 26.468165 11.993861 26.262115 C 12.171166 25.824915 12.266926 25.35587 12.508944 25.065901 C 12.590115 24.98985 12.685127 24.943395 12.795101 24.926162 L 12.9451 24.653052 C 13.435121 24.841494 13.938234 24.983856 14.454439 25.080138 C 14.970644 25.176794 15.491338 25.225496 16.01652 25.226995 C 16.541703 25.228119 17.062771 25.181664 17.57935 25.088005 C 18.095929 24.993971 18.59979 24.853857 19.090933 24.668037 L 19.224099 24.923165 C 19.359884 24.943021 19.481828 25.017948 19.564122 25.128091 C 19.7519 25.485869 19.904144 25.86088 20.020103 26.247879 C 20.072845 26.455428 20.137558 26.65923 20.213867 26.858911 L 20.296908 27.028996 C 20.318978 27.08669 20.348155 27.140638 20.384813 27.190465 C 20.421471 27.239917 20.464114 27.283749 20.513116 27.321587 C 20.562118 27.3598 20.614861 27.390146 20.672092 27.413373 C 20.729698 27.436601 20.788799 27.451586 20.85052 27.45833 C 20.911866 27.465073 20.972838 27.463574 21.03381 27.453459 C 21.094782 27.442969 21.15351 27.424987 21.209245 27.398762 C 21.265354 27.372163 21.316601 27.338821 21.362984 27.29836 C 21.409742 27.257899 21.450141 27.211819 21.48418 27.160119 C 21.517472 27.108045 21.543282 27.052598 21.561611 26.993406 C 21.57994 26.934213 21.589666 26.873522 21.591162 26.811707 C 21.592284 26.749892 21.585551 26.688826 21.56984 26.629259 C 21.554504 26.569317 21.531312 26.512373 21.499891 26.459174 L 21.413108 26.278974 C 21.303882 26.095028 21.184557 25.918199 21.055131 25.748114 C 20.825083 25.415812 20.626831 25.062155 20.455136 24.69089 C 20.438678 24.622332 20.436433 24.553399 20.448403 24.484091 C 20.459999 24.414783 20.485061 24.350346 20.522842 24.291153 C 20.480199 24.203863 20.443166 24.11395 20.412119 24.022164 C 22.231929 22.936842 23.592018 21.222132 24.23503 19.202092 L 24.518943 19.251919 C 24.621061 19.159009 24.754976 19.109931 24.891882 19.114052 C 25.289136 19.190104 25.67816 19.314108 26.054092 19.453848 C 26.248978 19.544135 26.449101 19.620186 26.651842 19.683874 C 26.700096 19.696987 26.770046 19.707851 26.823911 19.720963 L 26.837003 19.720963 C 26.896105 19.74007 26.956329 19.75056 27.018423 19.752807 C 27.080517 19.755055 27.141489 19.749061 27.201713 19.73445 C 27.261937 19.719465 27.319168 19.696987 27.373033 19.666266 C 27.427272 19.635921 27.4759 19.598457 27.519291 19.55425 C 27.563057 19.510418 27.599715 19.460966 27.62964 19.406643 C 27.659565 19.352321 27.681634 19.295002 27.695474 19.234685 C 27.709689 19.174369 27.7153 19.112928 27.712307 19.051113 C 27.709315 18.989298 27.697719 18.928607 27.677894 18.870164 C 27.657694 18.811346 27.630014 18.756275 27.594478 18.705324 C 27.558942 18.654373 27.517421 18.609417 27.469167 18.569706 C 27.421287 18.530369 27.368545 18.498525 27.311687 18.473799 C 27.25483 18.448698 27.195728 18.432214 27.134008 18.423972 L 26.93987 18.377892 C 26.727777 18.349045 26.514188 18.332186 26.29985 18.328065 C 25.895864 18.301841 25.495992 18.235905 25.105845 18.131006 C 24.986146 18.063946 24.885897 17.963918 24.818192 17.842911 L 24.548119 17.763113 C 24.619565 17.242369 24.643131 16.719376 24.619191 16.194511 C 24.595251 15.669645 24.524179 15.151148 24.405602 14.63902 C 24.287398 14.127267 24.123559 13.630124 23.914459 13.147967 C 23.705733 12.66581 23.454737 12.206506 23.161847 11.770054 L 23.39788 11.552016 C 23.388154 11.414899 23.433042 11.278906 23.522068 11.174008 C 23.829173 10.909889 24.162088 10.676865 24.511835 10.477933 C 24.702233 10.380902 24.886271 10.273382 25.06395 10.154997 L 25.209835 10.036986 C 25.263699 10.003644 25.311953 9.963557 25.354222 9.916353 C 25.396491 9.869524 25.431653 9.817449 25.459334 9.760879 C 25.487014 9.703934 25.506091 9.644367 25.516939 9.581803 C 25.527787 9.519613 25.529657 9.457049 25.52255 9.39411 C 25.515817 9.331171 25.500106 9.27048 25.475792 9.212037 C 25.451852 9.153593 25.420057 9.099646 25.380781 9.050194 C 25.34113 9.000742 25.295495 8.957659 25.243874 8.920944 C 25.192254 8.884605 25.136893 8.855758 25.077043 8.835153 C 25.017193 8.814173 24.955847 8.802185 24.89263 8.798813 C 24.829788 8.795441 24.76732 8.800686 24.705599 8.814922 C 24.644253 8.829158 24.5859 8.851637 24.530539 8.882357 C 24.475551 8.913452 24.425427 8.95129 24.380914 8.995872 L 24.233159 9.113882 C 24.078298 9.26074 23.932788 9.415464 23.795881 9.57918 C 23.532168 9.881137 23.240026 10.156121 22.922821 10.401882 C 22.792648 10.45508 22.657986 10.469691 22.518835 10.446089 L 22.265969 10.625915 C 20.806006 9.095899 18.83919 8.145821 16.730978 7.955881 C 16.730978 7.855853 16.717886 7.705998 16.716016 7.659169 C 16.603049 7.58087 16.524122 7.46211 16.497938 7.326866 C 16.484098 6.922259 16.509534 6.519899 16.573872 6.120162 C 16.616889 5.909991 16.647188 5.69982 16.665892 5.487027 L 16.665892 5.286971 C 16.686091 4.902969 16.395819 4.574038 16.01091 4.547064 Z M 15.168149 9.708055 L 14.968026 13.201166 L 14.953063 13.201166 C 14.942963 13.416956 14.816156 13.600903 14.620896 13.705052 C 14.42601 13.808826 14.19484 13.778106 14.020901 13.651104 L 11.155963 11.620949 C 11.611944 11.173258 12.120668 10.796374 12.681761 10.490671 C 13.243227 10.184968 13.835367 9.962059 14.458928 9.821945 C 14.69309 9.772118 14.929123 9.733905 15.165904 9.708055 Z M 16.83609 9.708055 C 18.34094 9.894999 19.742175 10.570843 20.825832 11.631813 L 17.987826 13.648856 C 17.813139 13.78897 17.572991 13.817068 17.369876 13.721161 C 17.167134 13.624879 17.036961 13.421077 17.033968 13.197045 Z M 10.116071 12.935174 L 12.735999 15.272905 L 12.735999 15.28789 C 12.89909 15.429878 12.970162 15.650913 12.921908 15.861833 C 12.874028 16.073128 12.71206 16.239842 12.504829 16.297161 L 12.504829 16.306902 L 9.143137 17.273838 C 9.101616 16.898078 9.091516 16.520819 9.112464 16.143185 C 9.133785 15.765552 9.18578 15.392039 9.268448 15.023022 C 9.351489 14.653631 9.464082 14.29398 9.606225 13.94332 C 9.748743 13.592661 9.918941 13.256237 10.11682 12.93405 Z M 21.86909 12.935174 C 22.665093 14.229917 23.017085 15.749068 22.870827 17.26185 L 19.503898 16.291916 L 19.503898 16.279178 C 19.294049 16.221859 19.133951 16.055146 19.086819 15.843851 C 19.040061 15.632931 19.110011 15.414143 19.273102 15.269908 L 21.87283 12.943041 Z M 15.465154 15.454978 L 16.53684 15.454978 L 17.191822 16.287046 L 16.953919 17.327037 L 15.991084 17.790087 L 15.026005 17.327037 L 14.79895 16.287046 Z M 18.89904 18.292849 C 18.943927 18.287979 18.998914 18.287979 19.034076 18.292849 L 22.50088 18.878031 C 22.001133 20.318134 21.013985 21.548065 19.72609 22.371141 L 18.385827 19.127165 C 18.367498 19.083332 18.354406 19.038376 18.346925 18.991921 C 18.339444 18.945091 18.337573 18.898262 18.34094 18.851058 C 18.34468 18.803853 18.354032 18.758148 18.36862 18.713191 C 18.383583 18.668235 18.403408 18.625526 18.428096 18.58544 C 18.453158 18.545354 18.482335 18.50864 18.516375 18.475672 C 18.55004 18.442704 18.587072 18.413857 18.627845 18.38988 C 18.668244 18.365903 18.711261 18.346797 18.756522 18.332935 C 18.801784 18.319074 18.847793 18.310832 18.894925 18.307835 Z M 13.076022 18.307835 C 13.27203 18.310832 13.453076 18.411984 13.560057 18.576074 C 13.667039 18.740165 13.683872 18.945841 13.607189 19.126041 L 13.607189 19.139153 L 12.275155 22.356905 C 10.999979 21.539823 10.031908 20.324877 9.516825 18.900135 L 12.954077 18.316826 C 12.991858 18.31308 13.031134 18.31308 13.070037 18.316826 Z M 15.979862 19.707851 C 16.034475 19.706353 16.08834 19.711972 16.141457 19.725084 C 16.194574 19.738571 16.244698 19.758802 16.292204 19.785775 C 16.33971 19.813124 16.382353 19.846092 16.420507 19.885429 C 16.458661 19.924391 16.490831 19.967849 16.517015 20.016177 L 16.530107 20.016177 L 18.223858 23.072836 L 17.547181 23.272891 C 16.301181 23.55799 14.999821 23.49093 13.788983 23.07883 L 15.489093 20.022171 C 15.59196 19.841971 15.781984 19.731828 15.98884 19.726958 Z M 15.979862 19.707851 " transform="matrix(10.442796,0,0,10.426776,20.672427,20.147379)"/>
</g>
</svg>
